<mxfile host="app.diagrams.net" modified="2023-06-23T06:21:11.445Z" agent="Mozilla/5.0 (Windows NT 10.0; Win64; x64) AppleWebKit/537.36 (KHTML, like Gecko) Chrome/114.0.0.0 Safari/537.36" etag="8jUN6AQWHumi5hWZMoFl" version="21.2.1" type="github">
  <diagram name="第 1 页" id="Fj8riWouGtBrgg-04jGr">
    <mxGraphModel dx="982" dy="493" grid="1" gridSize="10" guides="1" tooltips="1" connect="1" arrows="1" fold="1" page="1" pageScale="1" pageWidth="827" pageHeight="1169" math="1" shadow="0">
      <root>
        <mxCell id="0" />
        <mxCell id="1" parent="0" />
        <mxCell id="bOdUFbNhHK9uBtCB7BOw-1" value="" style="edgeStyle=orthogonalEdgeStyle;rounded=0;orthogonalLoop=1;jettySize=auto;html=1;fillColor=#f8cecc;strokeColor=#b85450;" edge="1" parent="1" source="bOdUFbNhHK9uBtCB7BOw-2" target="bOdUFbNhHK9uBtCB7BOw-4">
          <mxGeometry relative="1" as="geometry" />
        </mxCell>
        <mxCell id="bOdUFbNhHK9uBtCB7BOw-2" value="&lt;span style=&quot;color: rgb(0, 0, 0); font-family: &amp;quot;Times New Roman&amp;quot;; font-size: 16px; font-style: normal; font-variant-ligatures: normal; font-variant-caps: normal; font-weight: 400; letter-spacing: normal; orphans: 2; text-align: center; text-indent: 0px; text-transform: none; widows: 2; word-spacing: 0px; -webkit-text-stroke-width: 0px; text-decoration-thickness: initial; text-decoration-style: initial; text-decoration-color: initial; float: none; display: inline !important;&quot;&gt;PCF in CPS&lt;/span&gt;" style="rounded=0;whiteSpace=wrap;html=1;shadow=1;fillColor=#f8cecc;strokeColor=#b85450;labelBackgroundColor=none;" vertex="1" parent="1">
          <mxGeometry x="463.75" y="140" width="90" height="40" as="geometry" />
        </mxCell>
        <mxCell id="bOdUFbNhHK9uBtCB7BOw-3" value="" style="edgeStyle=orthogonalEdgeStyle;rounded=0;orthogonalLoop=1;jettySize=auto;html=1;" edge="1" parent="1" source="bOdUFbNhHK9uBtCB7BOw-4" target="bOdUFbNhHK9uBtCB7BOw-11">
          <mxGeometry relative="1" as="geometry" />
        </mxCell>
        <mxCell id="bOdUFbNhHK9uBtCB7BOw-4" value="&lt;font face=&quot;Times New Roman&quot;&gt;&lt;span style=&quot;font-size: 16px;&quot;&gt;SSA&lt;/span&gt;&lt;/font&gt;" style="rounded=0;whiteSpace=wrap;html=1;shadow=1;fillColor=#f8cecc;strokeColor=#b85450;labelBackgroundColor=none;" vertex="1" parent="1">
          <mxGeometry x="608.75" y="140" width="51.25" height="40" as="geometry" />
        </mxCell>
        <mxCell id="bOdUFbNhHK9uBtCB7BOw-5" value="&lt;font color=&quot;#990000&quot; style=&quot;font-size: 16px;&quot; face=&quot;Times New Roman&quot;&gt;$$\mathcal{G}$$&lt;/font&gt;" style="text;html=1;strokeColor=none;fillColor=none;align=center;verticalAlign=middle;whiteSpace=wrap;rounded=0;" vertex="1" parent="1">
          <mxGeometry x="543.75" y="130" width="70" height="30" as="geometry" />
        </mxCell>
        <mxCell id="bOdUFbNhHK9uBtCB7BOw-6" value="" style="edgeStyle=orthogonalEdgeStyle;rounded=0;orthogonalLoop=1;jettySize=auto;html=1;" edge="1" parent="1" source="bOdUFbNhHK9uBtCB7BOw-7" target="bOdUFbNhHK9uBtCB7BOw-2">
          <mxGeometry relative="1" as="geometry" />
        </mxCell>
        <mxCell id="bOdUFbNhHK9uBtCB7BOw-7" value="PCF" style="rounded=0;whiteSpace=wrap;html=1;labelBackgroundColor=none;fontFamily=Times New Roman;fontSize=16;shadow=1;fillColor=#f9f7ed;strokeColor=#36393d;" vertex="1" parent="1">
          <mxGeometry x="300" y="140" width="50" height="40" as="geometry" />
        </mxCell>
        <mxCell id="bOdUFbNhHK9uBtCB7BOw-8" value="" style="edgeStyle=orthogonalEdgeStyle;rounded=0;orthogonalLoop=1;jettySize=auto;html=1;" edge="1" parent="1" source="bOdUFbNhHK9uBtCB7BOw-9" target="bOdUFbNhHK9uBtCB7BOw-7">
          <mxGeometry relative="1" as="geometry" />
        </mxCell>
        <mxCell id="bOdUFbNhHK9uBtCB7BOw-9" value="PCF Program Text" style="rounded=0;whiteSpace=wrap;html=1;labelBackgroundColor=none;fontFamily=Times New Roman;fontSize=16;shadow=1;fillColor=#f9f7ed;strokeColor=#36393d;" vertex="1" parent="1">
          <mxGeometry x="100" y="140" width="140" height="40" as="geometry" />
        </mxCell>
        <mxCell id="bOdUFbNhHK9uBtCB7BOw-10" value="" style="edgeStyle=orthogonalEdgeStyle;rounded=0;orthogonalLoop=1;jettySize=auto;html=1;" edge="1" parent="1" source="bOdUFbNhHK9uBtCB7BOw-11" target="bOdUFbNhHK9uBtCB7BOw-12">
          <mxGeometry relative="1" as="geometry" />
        </mxCell>
        <mxCell id="bOdUFbNhHK9uBtCB7BOw-11" value="Vellvm LLVM IR&amp;nbsp;" style="rounded=0;whiteSpace=wrap;html=1;labelBackgroundColor=none;fontFamily=Times New Roman;fontSize=16;shadow=1;fillColor=#f9f7ed;strokeColor=#36393d;" vertex="1" parent="1">
          <mxGeometry x="561.88" y="215" width="145" height="40" as="geometry" />
        </mxCell>
        <mxCell id="bOdUFbNhHK9uBtCB7BOw-12" value="LLVM IR Text" style="rounded=0;whiteSpace=wrap;html=1;labelBackgroundColor=none;fontFamily=Times New Roman;fontSize=16;shadow=1;fillColor=#f9f7ed;strokeColor=#36393d;" vertex="1" parent="1">
          <mxGeometry x="400" y="215" width="122.5" height="40" as="geometry" />
        </mxCell>
        <mxCell id="bOdUFbNhHK9uBtCB7BOw-13" value="PCF Parser" style="text;html=1;strokeColor=none;fillColor=none;align=center;verticalAlign=middle;whiteSpace=wrap;rounded=0;fontSize=16;fontFamily=Times New Roman;fontColor=#000000;" vertex="1" parent="1">
          <mxGeometry x="240" y="120" width="60" height="30" as="geometry" />
        </mxCell>
        <mxCell id="bOdUFbNhHK9uBtCB7BOw-14" value="CPS Transformation" style="text;html=1;strokeColor=none;fillColor=none;align=center;verticalAlign=middle;whiteSpace=wrap;rounded=0;fontSize=16;fontFamily=Times New Roman;fontColor=#000000;" vertex="1" parent="1">
          <mxGeometry x="380" y="120" width="60" height="30" as="geometry" />
        </mxCell>
      </root>
    </mxGraphModel>
  </diagram>
</mxfile>
